{
  "accessors": [
    {
      "bufferView": 2,
      "componentType": 5126,
      "count": 1364,
      "max": [
        1.0258634090423584,
        0.14161397516727448,
        3.2550783157348633
      ],
      "min": [
        -1.0258634090423584,
        -0.14161397516727448,
        -1.0258634090423584
      ],
      "type": "VEC3"
    },
    {
      "bufferView": 2,
      "byteOffset": 16368,
      "componentType": 5126,
      "count": 1364,
      "max": [
        1.0,
        1.0,
        1.0
      ],
      "min": [
        -1.0,
        -1.0,
        -1.0
      ],
      "type": "VEC3"
    },
    {
      "bufferView": 3,
      "componentType": 5126,
      "count": 1364,
      "max": [
        1.0,
        1.0,
        1.0,
        1.0
      ],
      "min": [
        -1.0,
        -1.0,
        -0.9999982714653015,
        1.0
      ],
      "type": "VEC4"
    },
    {
      "bufferView": 1,
      "componentType": 5126,
      "count": 1364,
      "max": [
        0.9948406219482422,
        0.9969464540481567
      ],
      "min": [
        0.0031724926084280014,
        0.0031655728816986084
      ],
      "type": "VEC2"
    },
    {
      "bufferView": 1,
      "byteOffset": 10912,
      "componentType": 5126,
      "count": 1364,
      "max": [
        0.9948406219482422,
        0.9969464540481567
      ],
      "min": [
        0.0031724926084280014,
        0.0031655728816986084
      ],
      "type": "VEC2"
    },
    {
      "bufferView": 1,
      "byteOffset": 21824,
      "componentType": 5126,
      "count": 1364,
      "max": [
        0.9948406219482422,
        0.9969464540481567
      ],
      "min": [
        0.0031724926084280014,
        0.0031655728816986084
      ],
      "type": "VEC2"
    },
    {
      "bufferView": 1,
      "byteOffset": 32736,
      "componentType": 5126,
      "count": 1364,
      "max": [
        0.9948406219482422,
        0.9969464540481567
      ],
      "min": [
        0.0031724926084280014,
        0.0031655728816986084
      ],
      "type": "VEC2"
    },
    {
      "bufferView": 0,
      "componentType": 5125,
      "count": 5640,
      "type": "SCALAR"
    }
  ],
  "asset": {
    "extras": {
      "author": "Incg5764 (https://sketchfab.com/incg5764)",
      "license": "CC-BY-4.0 (http://creativecommons.org/licenses/by/4.0/)",
      "source": "https://sketchfab.com/3d-models/styled-magnifying-glass-2d456cf49dd248739f3fb9616036c239",
      "title": "Styled Magnifying Glass"
    },
    "generator": "Sketchfab-14.20.0",
    "version": "2.0"
  },
  "bufferViews": [
    {
      "buffer": 0,
      "byteLength": 22560,
      "name": "floatBufferViews",
      "target": 34963
    },
    {
      "buffer": 0,
      "byteLength": 43648,
      "byteOffset": 22560,
      "byteStride": 8,
      "name": "floatBufferViews",
      "target": 34962
    },
    {
      "buffer": 0,
      "byteLength": 32736,
      "byteOffset": 66208,
      "byteStride": 12,
      "name": "floatBufferViews",
      "target": 34962
    },
    {
      "buffer": 0,
      "byteLength": 21824,
      "byteOffset": 98944,
      "byteStride": 16,
      "name": "floatBufferViews",
      "target": 34962
    }
  ],
  "buffers": [
    {
      "byteLength": 120768,
      "uri": "scene.bin"
    }
  ],
  "images": [
    {
      "uri": "textures/glass.001_baseColor.png"
    },
    {
      "uri": "textures/glass.001_metallicRoughness.png"
    },
    {
      "uri": "textures/glass.001_normal.png"
    }
  ],
  "materials": [
    {
      "alphaMode": "BLEND",
      "doubleSided": true,
      "name": "glass.001",
      "normalTexture": {
        "index": 2
      },
      "pbrMetallicRoughness": {
        "baseColorTexture": {
          "index": 0
        },
        "metallicRoughnessTexture": {
          "index": 1
        }
      }
    }
  ],
  "meshes": [
    {
      "name": "Object_0",
      "primitives": [
        {
          "attributes": {
            "NORMAL": 1,
            "POSITION": 0,
            "TANGENT": 2,
            "TEXCOORD_0": 3,
            "TEXCOORD_1": 4,
            "TEXCOORD_2": 5,
            "TEXCOORD_3": 6
          },
          "indices": 7,
          "material": 0,
          "mode": 4
        }
      ]
    }
  ],
  "nodes": [
    {
      "children": [
        1
      ],
      "matrix": [
        0.7454807162284851,
        0.6554602980613708,
        0.1209557726979257,
        0.0,
        -0.4797069728374481,
        0.6536132097244264,
        -0.5853810310363768,
        0.0,
        -0.4627523422241211,
        0.3783669769763945,
        0.8016849160194398,
        0.0,
        0.0,
        0.0,
        0.0,
        1.0
      ],
      "name": "Sketchfab_model"
    },
    {
      "children": [
        2
      ],
      "name": "root"
    },
    {
      "children": [
        3
      ],
      "matrix": [
        1.0,
        0.0,
        0.0,
        0.0,
        0.0,
        2.220446049250313e-16,
        1.0,
        0.0,
        0.0,
        -1.0,
        2.220446049250313e-16,
        0.0,
        0.0,
        0.0,
        0.0,
        1.0
      ],
      "name": "GLTF_SceneRootNode"
    },
    {
      "children": [
        4
      ],
      "name": "glass_0"
    },
    {
      "mesh": 0,
      "name": "Object_4"
    }
  ],
  "samplers": [
    {
      "magFilter": 9729,
      "minFilter": 9987,
      "wrapS": 10497,
      "wrapT": 10497
    }
  ],
  "scene": 0,
  "scenes": [
    {
      "name": "Sketchfab_Scene",
      "nodes": [
        0
      ]
    }
  ],
  "textures": [
    {
      "sampler": 0,
      "source": 0
    },
    {
      "sampler": 0,
      "source": 1
    },
    {
      "sampler": 0,
      "source": 2
    }
  ]
}
