{
  "accessors": [
    {
      "bufferView": 2,
      "componentType": 5126,
      "count": 1125,
      "max": [
        0.1298440396785736,
        0.09510627388954163,
        0.13184711337089539
      ],
      "min": [
        -0.12984387576580048,
        -0.009905866347253323,
        -0.13184687495231628
      ],
      "type": "VEC3"
    },
    {
      "bufferView": 2,
      "byteOffset": 13500,
      "componentType": 5126,
      "count": 1125,
      "max": [
        0.9994570016860962,
        1.0,
        1.0
      ],
      "min": [
        -0.9976518750190735,
        -1.0,
        -1.0
      ],
      "type": "VEC3"
    },
    {
      "bufferView": 1,
      "componentType": 5126,
      "count": 1125,
      "max": [
        0.9918314814567566,
        0.9728922843933105
      ],
      "min": [
        0.01662430167198181,
        0.010939031839370728
      ],
      "type": "VEC2"
    },
    {
      "bufferView": 1,
      "byteOffset": 9000,
      "componentType": 5126,
      "count": 1125,
      "max": [
        0.9998992681503296,
        0.8084985017776489
      ],
      "min": [
        0.00010072779696201906,
        0.00010072779696201906
      ],
      "type": "VEC2"
    },
    {
      "bufferView": 0,
      "componentType": 5125,
      "count": 4578,
      "type": "SCALAR"
    }
  ],
  "asset": {
    "extras": {
      "author": "intrepidolivia (https://sketchfab.com/intrepidolivia)",
      "license": "CC-BY-4.0 (http://creativecommons.org/licenses/by/4.0/)",
      "source": "https://sketchfab.com/3d-models/coffee-0e452788466f4c81b9a8601781f86cb3",
      "title": "Coffee"
    },
    "generator": "Sketchfab-15.58.0",
    "version": "2.0"
  },
  "bufferViews": [
    {
      "buffer": 0,
      "byteLength": 18312,
      "name": "floatBufferViews",
      "target": 34963
    },
    {
      "buffer": 0,
      "byteLength": 18000,
      "byteOffset": 18312,
      "byteStride": 8,
      "name": "floatBufferViews",
      "target": 34962
    },
    {
      "buffer": 0,
      "byteLength": 27000,
      "byteOffset": 36312,
      "byteStride": 12,
      "name": "floatBufferViews",
      "target": 34962
    }
  ],
  "buffers": [
    {
      "byteLength": 63312,
      "uri": "scene.bin"
    }
  ],
  "images": [
    {
      "uri": "textures/coffeecup_baseColor.png"
    },
    {
      "uri": "textures/coffeecup_metallicRoughness.png"
    }
  ],
  "materials": [
    {
      "doubleSided": true,
      "name": "coffeecup",
      "pbrMetallicRoughness": {
        "baseColorTexture": {
          "index": 0
        },
        "metallicFactor": 0.0,
        "metallicRoughnessTexture": {
          "index": 1
        },
        "roughnessFactor": 0.3645354059612041
      }
    }
  ],
  "meshes": [
    {
      "name": "Object_0",
      "primitives": [
        {
          "attributes": {
            "NORMAL": 1,
            "POSITION": 0,
            "TEXCOORD_0": 2,
            "TEXCOORD_1": 3
          },
          "indices": 4,
          "material": 0,
          "mode": 4
        }
      ]
    }
  ],
  "nodes": [
    {
      "children": [
        1
      ],
      "matrix": [
        1.0,
        0.0,
        0.0,
        0.0,
        0.0,
        2.220446049250313e-16,
        -1.0,
        0.0,
        0.0,
        1.0,
        2.220446049250313e-16,
        0.0,
        0.0,
        0.0,
        0.0,
        1.0
      ],
      "name": "Sketchfab_model"
    },
    {
      "children": [
        2
      ],
      "name": "root"
    },
    {
      "children": [
        3
      ],
      "matrix": [
        1.0,
        0.0,
        0.0,
        0.0,
        0.0,
        2.220446049250313e-16,
        1.0,
        0.0,
        0.0,
        -1.0,
        2.220446049250313e-16,
        0.0,
        0.0,
        0.0,
        0.0,
        1.0
      ],
      "name": "GLTF_SceneRootNode"
    },
    {
      "children": [
        4
      ],
      "name": "saucer_0"
    },
    {
      "mesh": 0,
      "name": "Object_4"
    }
  ],
  "samplers": [
    {
      "magFilter": 9729,
      "minFilter": 9987,
      "wrapS": 10497,
      "wrapT": 10497
    }
  ],
  "scene": 0,
  "scenes": [
    {
      "name": "Sketchfab_Scene",
      "nodes": [
        0
      ]
    }
  ],
  "textures": [
    {
      "sampler": 0,
      "source": 0
    },
    {
      "sampler": 0,
      "source": 1
    }
  ]
}
